<svg width="25" height="24" viewBox="0 0 25 24" fill="none" xmlns="http://www.w3.org/2000/svg">
<g clip-path="url(#clip0_3013_17038)">
<path fill-rule="evenodd" clip-rule="evenodd" d="M4.80821 20.27C3.64821 20.21 3.80821 20.61 2.42821 13.99C2.24821 13.15 2.06821 12.68 1.92821 12.05C1.89834 11.9135 1.92362 11.7706 1.99854 11.6527C2.07345 11.5347 2.19194 11.451 2.32821 11.42C3.32821 11.2 3.72821 11 5.09821 10.6C5.1513 10.6087 5.20571 10.6043 5.25671 10.5871C5.30771 10.57 5.35374 10.5407 5.39081 10.5017C5.42787 10.4627 5.45483 10.4152 5.46935 10.3634C5.48388 10.3116 5.48551 10.257 5.47412 10.2045C5.46273 10.1519 5.43865 10.1029 5.40399 10.0617C5.36933 10.0206 5.32514 9.98854 5.27526 9.96838C5.22538 9.94822 5.17133 9.94056 5.11781 9.94607C5.06429 9.95158 5.01294 9.97009 4.96821 9.99999C-0.391791 10.45 0.868209 10.55 1.80821 16.46C1.94821 17.36 2.43821 19.89 3.29821 20.76C3.93821 21.39 5.71821 20.99 6.68821 20.82C6.73256 20.8183 6.77598 20.8067 6.81533 20.7862C6.85468 20.7656 6.88898 20.7366 6.91577 20.7012C6.94255 20.6659 6.96115 20.625 6.97022 20.5815C6.97928 20.5381 6.9786 20.4931 6.96821 20.45C6.86821 20 6.33821 20.34 4.80821 20.27Z" fill="#0C6FFF"/>
<path fill-rule="evenodd" clip-rule="evenodd" d="M12.2582 5.27002C12.4182 4.97002 12.8482 3.89002 12.5482 3.72002C11.9282 3.23002 11.2482 4.86002 11.1282 5.82002C10.9882 6.29002 11.4082 6.49002 11.8282 6.29002C11.9896 5.95789 12.1331 5.61741 12.2582 5.27002Z" fill="#0C6FFF"/>
<path fill-rule="evenodd" clip-rule="evenodd" d="M24.7782 7.25999C24.0782 6.15999 22.7782 5.94999 21.6482 5.45999C19.3982 4.52999 17.3682 4.18999 15.1382 3.45999C15.0082 3.45999 13.0182 2.59999 12.7382 3.03999C12.6971 3.10497 12.6835 3.18361 12.7004 3.25862C12.7172 3.33363 12.7632 3.39886 12.8282 3.43999C13.0882 3.60999 12.6282 3.25999 14.8982 4.11999C16.8982 4.89999 19.3082 5.54999 21.2082 6.42999C21.7982 6.69999 22.4682 6.88999 23.0382 7.17999C24.2882 7.80999 23.8082 8.17999 23.6182 9.25999C23.3859 10.5806 23.0516 11.8811 22.6182 13.15C22.4146 14.2795 22.1169 15.3901 21.7282 16.47H21.5082C21.0382 16.62 21.1782 17.18 21.5082 17.17C22.5082 17.25 22.5082 16.85 23.5082 13.44C24.0318 12.1425 24.4498 10.8048 24.7582 9.43999C24.7882 8.93999 25.2082 7.99999 24.7782 7.25999Z" fill="#0C6FFF"/>
<path fill-rule="evenodd" clip-rule="evenodd" d="M21.4582 9C21.0982 7.2 18.6882 7.34 17.2282 7.09C15.3982 6.77 10.0682 6.53 9.58819 6.49C8.98895 6.37009 8.37931 6.3098 7.76819 6.31C6.99819 6.39 6.95819 6.36 6.88819 6.56C6.67819 7.18 7.62819 6.85 8.29819 6.92C8.70819 6.92 9.15819 7.06 9.51819 7.11C12.0482 7.41 14.6182 7.42 17.0682 7.91C18.2782 8.16 19.6482 8.1 20.3782 8.84C20.7782 9.25 20.3182 14.22 20.2582 14.79C19.8715 14.1818 19.275 13.7368 18.5818 13.5395C17.8886 13.3423 17.1471 13.4065 16.4982 13.72C15.5667 14.2183 14.7141 14.8519 13.9682 15.6C13.4982 13.83 12.8582 12.19 11.1082 11.6C10.7121 11.4941 10.2969 11.4805 9.8947 11.5602C9.49249 11.64 9.11394 11.811 8.78819 12.06C7.6999 12.9301 6.82151 14.034 6.21819 15.29C6.32819 9.4 7.39819 7.39 6.75819 7.29C6.11819 7.19 6.25819 7.74 6.18819 8.37C5.7853 10.5608 5.52475 12.7755 5.40819 15C5.30819 18.54 5.21819 19 9.15819 19.6C12.347 19.9425 15.5511 20.1228 18.7582 20.14C20.7582 20.14 20.7582 19.4 20.8382 18.23C20.8382 18.21 21.7982 10.67 21.4582 9ZM6.96819 18.16C6.59819 18.03 6.29819 18.16 6.22819 16.57C6.9896 15.1596 8.05952 13.9393 9.35819 13C9.56089 12.8502 9.79435 12.7474 10.0417 12.699C10.289 12.6506 10.544 12.6578 10.7882 12.72C11.3549 12.9194 11.833 13.3125 12.1382 13.83C12.929 15.5048 13.63 17.2206 14.2382 18.97C12.5582 18.89 8.55819 18.72 6.96819 18.16ZM20.0982 18.07L20.0182 18.86C18.3444 19.0837 16.6518 19.1306 14.9682 19C14.9682 18.82 14.3082 16.69 14.2182 16.34C15.4282 15.58 16.7982 14.48 18.1282 14.61C18.5423 14.6808 18.9304 14.8595 19.2535 15.1281C19.5765 15.3967 19.823 15.7458 19.9682 16.14C20.2282 16.67 20.1782 16.29 20.1082 18.07H20.0982Z" fill="#020202"/>
<path fill-rule="evenodd" clip-rule="evenodd" d="M17.3982 12.25C17.6365 12.1082 17.8339 11.9069 17.9709 11.6658C18.108 11.4248 18.1801 11.1523 18.1801 10.875C18.1801 10.5977 18.108 10.3251 17.9709 10.0841C17.8339 9.84305 17.6365 9.64176 17.3982 9.49996C14.3382 7.19997 12.3982 11.21 14.8482 12.5C15.2643 12.6549 15.7102 12.7129 16.1521 12.6696C16.594 12.6263 17.0202 12.4828 17.3982 12.25ZM15.3982 9.56996C15.9582 9.34996 17.0682 10.07 17.1882 10.72C17.3082 11.37 15.8782 11.72 15.2982 11.47C15.1014 11.3917 14.9345 11.2529 14.8217 11.0736C14.7088 10.8943 14.6558 10.6839 14.6703 10.4726C14.6847 10.2612 14.7659 10.0599 14.9021 9.89772C15.0384 9.73551 15.2226 9.62074 15.4282 9.56996H15.3982Z" fill="#020202"/>
</g>
<defs>
<clipPath id="clip0_3013_17038">
<rect width="24" height="24" fill="white" transform="translate(0.968201)"/>
</clipPath>
</defs>
</svg>
