<svg width="25" height="24" viewBox="0 0 25 24" fill="none" xmlns="http://www.w3.org/2000/svg">
<g clip-path="url(#clip0_3013_16921)">
<path d="M22.3782 17.68C22.3821 17.6353 22.3772 17.5904 22.3638 17.5476C22.3503 17.5048 22.3286 17.4651 22.2998 17.4308C22.271 17.3964 22.2358 17.3681 22.196 17.3474C22.1563 17.3266 22.1128 17.3139 22.0682 17.31C22.0235 17.3061 21.9786 17.3109 21.9358 17.3244C21.893 17.3378 21.8533 17.3596 21.819 17.3884C21.7846 17.4171 21.7563 17.4524 21.7355 17.4922C21.7148 17.5319 21.7021 17.5753 21.6982 17.62C21.5782 20.98 21.6082 22.05 21.3182 22.45C18.9005 22.335 16.4778 22.3918 14.0682 22.62C7.62819 22.79 8.06819 22.67 4.94819 22.74C4.86819 22.74 4.70819 22.63 4.63819 22.68C4.71819 19.79 4.63819 18.75 4.63819 17.84C4.63819 16.93 3.98819 17.31 3.98819 17.84C3.98819 18.37 3.98819 17.39 3.81819 21.84C3.81819 22.21 3.61819 22.84 3.90819 23.28C4.03208 23.4226 4.18599 23.536 4.35889 23.612C4.53178 23.6881 4.71937 23.725 4.90819 23.72C7.60819 23.79 7.90819 23.86 9.63819 23.87C16.6382 23.87 15.7482 23.37 21.1182 23.37C22.6382 23.34 22.3782 22.13 22.3782 17.68Z" fill="#020202"/>
<path d="M22.8682 16.17C19.5682 16.04 17.4582 16.29 7.72821 16.27C6.15821 16.27 3.65821 16.43 3.55821 16.44C3.16821 16.44 2.65821 16.44 2.72821 16.88C2.74716 16.9558 2.79322 17.0221 2.8577 17.0663C2.92218 17.1106 3.00062 17.1296 3.07821 17.12C8.70821 17.12 22.0782 16.87 22.8682 16.85C22.9584 16.85 23.0449 16.8142 23.1086 16.7504C23.1724 16.6866 23.2082 16.6001 23.2082 16.51C23.2082 16.4198 23.1724 16.3333 23.1086 16.2696C23.0449 16.2058 22.9584 16.17 22.8682 16.17Z" fill="#0C6FFF"/>
<path d="M18.4882 18.79C15.6382 18.88 13.6982 18.62 11.0682 18.79C10.0682 18.88 6.55821 19.26 6.52821 19.26C6.51991 18.6634 6.46642 18.0684 6.36821 17.48C6.28821 17.22 5.70821 17.12 5.75821 17.57V19.38C5.75821 19.83 6.19821 20.04 6.64821 20.1C6.92821 20.1 5.98821 20.1 13.2482 19.85C14.6582 19.85 15.7182 19.85 17.3182 19.78C19.5482 19.55 19.5782 19.65 19.9182 19.48C20.6782 19.09 20.5482 18.22 20.4282 17.12C20.4282 16.93 19.7182 16.88 19.7282 17.26C19.7682 19.2 19.6682 18.77 18.4882 18.79Z" fill="#020202"/>
<path d="M24.3982 13.88C23.2082 12.8 23.7682 15 23.9682 9.58996C23.9682 8.20996 23.9682 6.81995 23.9182 5.44995C23.9391 4.75894 23.9124 4.0673 23.8382 3.37996C23.4982 1.62996 22.2082 1.93996 20.6782 1.85996L17.7782 1.57996C15.9014 1.73592 14.015 1.73592 12.1382 1.57996C10.0788 1.53194 8.01833 1.60875 5.9682 1.80996C4.8682 1.80996 3.1682 1.61996 2.5282 2.63996C2.1882 3.18996 2.2882 2.93996 2.3582 9.71996C2.20805 11.0816 2.18796 12.4545 2.2982 13.82C1.5882 13.91 1.0982 14.15 0.998198 15.19C0.966591 16.3554 1.05033 17.521 1.2482 18.67C1.4082 19.83 1.2682 21 2.8082 20.88C2.89927 20.8748 2.98472 20.8343 3.04636 20.767C3.108 20.6998 3.14095 20.6111 3.1382 20.52C3.1382 19.96 2.4082 20.39 2.1382 19.99C2.00896 19.5282 1.95162 19.0492 1.9682 18.57C1.8882 17.91 1.6082 15.37 1.9682 14.83C2.0482 14.72 2.2382 14.73 5.0382 14.52C12.4082 13.92 18.0382 14.74 20.9282 14.41C22.2082 14.26 23.6782 13.99 24.0882 14.94C24.0882 18.78 24.2482 19.3 23.8882 19.76C23.7182 19.97 22.6682 19.82 22.8882 20.37C22.9006 20.4074 22.9203 20.4421 22.9462 20.4719C22.972 20.5017 23.0035 20.5262 23.0388 20.5438C23.0741 20.5615 23.1125 20.572 23.1519 20.5747C23.1912 20.5775 23.2308 20.5725 23.2682 20.56C23.4482 20.5 23.7482 20.5 23.9882 20.43C24.9882 20.12 24.8382 18.43 24.8482 17.7C24.9082 15.26 25.2682 14.67 24.3982 13.88ZM22.9682 13.34C21.6982 13.22 21.9182 13.47 18.8382 13.34C11.1982 13.12 11.5082 12.74 2.8882 13.7C2.83067 12.3633 2.89762 11.0242 3.0882 9.69995C3.1982 4.86996 3.2082 3.83996 3.2082 3.69996C3.2082 3.60996 3.2082 3.76996 3.2082 3.69996C3.2082 3.08996 3.4682 2.98996 4.1082 2.90996C4.72703 2.85906 5.34886 2.85572 5.9682 2.89996L10.5682 2.68996C14.6682 2.84996 14.6682 2.85996 15.4382 2.81996C17.1615 2.63272 18.9015 2.65959 20.6182 2.89996C20.9982 2.89996 22.4082 2.79996 22.6182 3.02996C23.0682 3.49996 22.9282 4.80996 22.9882 5.51996C23.2067 8.12234 23.2 10.7387 22.9682 13.34Z" fill="#020202"/>
<path d="M10.9682 0.849973C12.3001 0.936084 13.6363 0.936084 14.9682 0.849973C15.0496 0.83606 15.1235 0.793797 15.1768 0.730659C15.23 0.667521 15.2593 0.587578 15.2593 0.504973C15.2593 0.422368 15.23 0.342426 15.1768 0.279288C15.1235 0.21615 15.0496 0.173886 14.9682 0.159973C12.4982 0.159973 12.5282 0.269973 10.9682 0.259973C10.8993 0.272719 10.837 0.309203 10.7921 0.363092C10.7473 0.41698 10.7227 0.48487 10.7227 0.554973C10.7227 0.625076 10.7473 0.692966 10.7921 0.746855C10.837 0.800743 10.8993 0.837228 10.9682 0.849973Z" fill="#020202"/>
<path d="M12.3782 5.23C8.5782 6.23 9.6682 12.46 13.9682 11.44C18.0782 10.46 16.2582 4.18 12.3782 5.23ZM15.0582 9.53C14.7086 9.94802 14.2287 10.2364 13.6955 10.3489C13.1623 10.4613 12.6068 10.3913 12.1182 10.15C10.9682 9.63 10.4082 6.76 12.6082 6C14.6182 5.23 16.1082 8 15.0582 9.53Z" fill="#020202"/>
<path d="M21.5682 10.48C20.4387 10.3218 19.2914 10.3421 18.1682 10.54C18.09 10.5572 18.0218 10.6048 17.9786 10.6723C17.9355 10.7399 17.921 10.8217 17.9382 10.9C17.9554 10.9782 18.0031 11.0464 18.0706 11.0895C18.1381 11.1327 18.22 11.1472 18.2982 11.13C19.1882 10.98 20.1682 11.24 21.5982 11.13C21.6497 11.143 21.7035 11.1439 21.7553 11.1324C21.8072 11.1209 21.8556 11.0975 21.8967 11.0639C21.9379 11.0303 21.9706 10.9876 21.9923 10.9391C22.0139 10.8907 22.0239 10.8378 22.0215 10.7848C22.019 10.7317 22.0042 10.68 21.9782 10.6337C21.9521 10.5874 21.9156 10.5479 21.8715 10.5183C21.8275 10.4887 21.7771 10.4698 21.7244 10.4631C21.6717 10.4565 21.6182 10.4622 21.5682 10.48Z" fill="#020202"/>
<path d="M21.8382 4.79999C21.7541 4.62343 21.6282 4.47009 21.4713 4.35332C21.3145 4.23655 21.1315 4.15988 20.9382 4.12999C19.9741 3.96176 18.9851 4.00268 18.0382 4.24999C17.3182 4.43999 17.2682 6.99999 17.5682 7.74999C17.8682 8.49999 19.1882 8.42999 19.7982 8.46999C20.6082 8.46999 21.7982 8.79999 22.0682 7.26999C22.1436 6.43952 22.0657 5.60225 21.8382 4.79999ZM18.2182 4.90999C19.0259 4.77382 19.8528 4.80444 20.6482 4.99999C19.7457 5.38542 18.9245 5.93852 18.2282 6.62999C18.0966 6.06458 18.0931 5.47688 18.2182 4.90999ZM20.8382 7.32999C20.0528 7.39197 19.2636 7.39197 18.4782 7.32999C19.2546 6.67389 20.0879 6.08824 20.9682 5.57999C21.0042 6.16652 20.9604 6.75521 20.8382 7.32999Z" fill="#020202"/>
<path d="M8.68819 4.93999C8.34819 3.63999 6.77819 4.10999 4.57819 4.35999C4.54402 4.30943 4.49477 4.27094 4.43745 4.25C4.38013 4.22905 4.31767 4.22673 4.25895 4.24334C4.20024 4.25996 4.14826 4.29468 4.11042 4.34255C4.07258 4.39043 4.0508 4.44902 4.04819 4.50999C3.96322 5.58164 3.96322 6.65833 4.04819 7.72999C4.11019 8.79242 4.11019 9.85756 4.04819 10.92C4.11819 11.92 5.36819 11.99 6.35819 11.92C6.81819 11.92 8.14819 11.71 8.35819 11.66C9.27819 11.43 9.15819 10.28 9.14819 9.60999C9.07861 8.0462 8.92505 6.48729 8.68819 4.93999ZM5.41819 10.79H5.10819C5.01819 9.60999 4.62819 5.99999 4.62819 4.99999H5.85819L5.96819 10.78C5.78563 10.8013 5.60141 10.8046 5.41819 10.79ZM6.70819 10.68C6.79787 8.76388 6.72427 6.84361 6.48819 4.93999C6.77819 4.93999 7.56819 4.84999 7.78819 5.03999C7.90819 7.22999 8.05819 10.4 8.01819 10.52C7.58967 10.6265 7.14975 10.6802 6.70819 10.68Z" fill="#0C6FFF"/>
</g>
<defs>
<clipPath id="clip0_3013_16921">
<rect width="24" height="24" fill="white" transform="translate(0.968201)"/>
</clipPath>
</defs>
</svg>
