<svg width="25" height="24" viewBox="0 0 25 24" fill="none" xmlns="http://www.w3.org/2000/svg">
<g clip-path="url(#clip0_3013_17529)">
<path fill-rule="evenodd" clip-rule="evenodd" d="M12.2282 10.91C12.334 11.0133 12.4598 11.0941 12.5978 11.1473C12.7359 11.2004 12.8833 11.225 13.0311 11.2194C13.1789 11.2137 13.324 11.1781 13.4576 11.1146C13.5912 11.0511 13.7105 10.9611 13.8082 10.85C13.9311 10.6389 13.9725 10.3902 13.9246 10.1507C13.8767 9.91124 13.7428 9.69756 13.5482 9.55C12.5582 9 11.3482 10 12.2282 10.91Z" fill="#020202"/>
<path fill-rule="evenodd" clip-rule="evenodd" d="M7.7082 12.65C8.66377 13.0656 9.67409 13.3417 10.7082 13.47C12.2582 13.66 16.1582 13.71 17.5882 13.08C18.0678 12.9153 18.475 12.5885 18.7397 12.1559C19.0043 11.7233 19.1099 11.212 19.0382 10.71C18.7982 9.09 15.7882 2.71 14.9382 2.3C14.7682 2.22 14.2782 2.22 14.4682 2.75C15.397 4.07273 16.1689 5.49897 16.7682 7C17.2811 8.25506 17.7153 9.54089 18.0682 10.85C18.1023 11.0386 18.0814 11.2329 18.0082 11.41C17.8263 11.7308 17.5353 11.9756 17.1882 12.1C16.0782 12.55 12.3082 12.5 10.8682 12.32C9.93955 12.2159 9.03044 11.9802 8.1682 11.62C7.0282 11.12 7.8782 10.15 8.3682 9.01C9.0582 7.39 12.3682 1.4 13.5682 1.88C13.641 1.89875 13.7181 1.89041 13.7853 1.85652C13.8524 1.82264 13.9049 1.76552 13.933 1.6958C13.9611 1.62608 13.963 1.54851 13.9382 1.47754C13.9134 1.40657 13.8636 1.34702 13.7982 1.31C11.6982 0.379999 6.5382 9.55 6.4982 11C6.50276 11.3668 6.62184 11.7231 6.83879 12.0189C7.05574 12.3147 7.3597 12.5354 7.7082 12.65Z" fill="#020202"/>
<path fill-rule="evenodd" clip-rule="evenodd" d="M12.8082 8C13.3682 8.29 13.5582 7.16 13.5782 6.52C13.5745 5.75827 13.4357 5.00323 13.1682 4.29C13.0882 4.16 12.7482 4.04 12.5982 4.49C12.3262 5.11936 12.2428 5.81416 12.3582 6.49C12.3982 7.38 12.5082 7.89 12.8082 8Z" fill="#020202"/>
<path fill-rule="evenodd" clip-rule="evenodd" d="M4.2782 17.39C3.2982 15.28 1.9682 7.42 2.2082 6.7C2.3582 6.3 2.0182 5.96 5.1082 5.32C5.89773 5.14572 6.7006 5.03867 7.5082 5C7.58963 4.98608 7.66351 4.94382 7.71677 4.88068C7.77004 4.81754 7.79925 4.7376 7.79925 4.655C7.79925 4.57239 7.77004 4.49245 7.71677 4.42931C7.66351 4.36617 7.58963 4.32391 7.5082 4.31C6.65887 4.31505 5.81063 4.37182 4.9682 4.48C1.5182 5 1.5282 5.51 1.1782 6.28C0.538203 7.77 2.2282 14.74 3.7282 17.66C3.77059 17.7207 3.83328 17.7641 3.90493 17.7826C3.97659 17.8011 4.05248 17.7933 4.11891 17.7607C4.18533 17.7281 4.2379 17.6728 4.26712 17.6048C4.29633 17.5368 4.30026 17.4606 4.2782 17.39Z" fill="#0C6FFF"/>
<path fill-rule="evenodd" clip-rule="evenodd" d="M20.9682 5.33C21.9194 5.51776 22.7872 6.00065 23.4482 6.71C23.7182 7.71 22.9882 14.87 22.3882 17.43C22.3731 17.5154 22.3902 17.6033 22.4362 17.6768C22.4823 17.7503 22.5539 17.8041 22.6374 17.8277C22.7208 17.8514 22.81 17.8432 22.8878 17.8048C22.9655 17.7665 23.0262 17.7006 23.0582 17.62C23.6926 15.4527 24.1574 13.2394 24.4482 11C24.7252 9.45076 24.7488 7.86682 24.5182 6.31C24.4083 6.08016 24.2434 5.88095 24.0382 5.73C22.5282 4.48 20.4382 4.36 18.4482 4.36C18.408 4.35866 18.3679 4.36543 18.3303 4.3799C18.2928 4.39437 18.2585 4.41626 18.2296 4.44425C18.2006 4.47224 18.1777 4.50577 18.162 4.54284C18.1463 4.5799 18.1382 4.61975 18.1382 4.66C18.1182 5.21 18.8782 4.8 20.9682 5.33Z" fill="#0C6FFF"/>
<path fill-rule="evenodd" clip-rule="evenodd" d="M24.9682 18.91C24.7482 18 22.6382 18.05 22.9682 18.79C22.9838 18.8322 23.0075 18.8708 23.0381 18.9038C23.0687 18.9367 23.1056 18.9632 23.1465 18.9818C23.1874 19.0004 23.2316 19.0107 23.2765 19.0121C23.3214 19.0135 23.3662 19.006 23.4082 18.99C23.7072 18.8984 24.0301 18.9271 24.3082 19.07C24.306 19.5241 24.196 19.9711 23.9874 20.3744C23.7788 20.7777 23.4775 21.1258 23.1082 21.39C22.8182 21.54 7.0482 21.92 3.1082 21.33C2.4782 20.69 1.9682 19.24 2.1082 19.33C16.6082 18.25 22.0382 19.44 22.1082 18.73C22.0937 18.6293 22.0431 18.5373 21.9658 18.4711C21.8886 18.4049 21.7899 18.369 21.6882 18.37C19.4382 18.2 5.1782 17.59 2.0882 18.24C1.72212 18.285 1.38826 18.4717 1.1582 18.76C0.6182 19.76 1.4682 21.41 2.2182 22.19C3.4782 23.49 22.9982 22.37 23.4082 22.19C23.9403 21.8352 24.3662 21.3428 24.6409 20.7653C24.9156 20.1878 25.0287 19.5466 24.9682 18.91Z" fill="#020202"/>
</g>
<defs>
<clipPath id="clip0_3013_17529">
<rect width="24" height="24" fill="white" transform="translate(0.968201)"/>
</clipPath>
</defs>
</svg>
