<svg width="25" height="24" viewBox="0 0 25 24" fill="none" xmlns="http://www.w3.org/2000/svg">
<g clip-path="url(#clip0_3013_20968)">
<path fill-rule="evenodd" clip-rule="evenodd" d="M18.5572 20C18.6483 20 18.7359 19.9646 18.8012 19.9011C18.8666 19.8376 18.9046 19.7511 18.9072 19.66C18.972 18.6878 18.8979 17.7113 18.6872 16.76C18.5977 16.3482 18.4773 15.9438 18.3272 15.55C18.1778 15.1563 17.9972 14.775 17.7872 14.41C17.3121 13.6026 16.6546 12.9176 15.8672 12.41C16.3612 11.9728 16.754 11.4332 17.0182 10.8288C17.2825 10.2243 17.4118 9.56953 17.3972 8.91001C17.4669 8.04981 17.3891 7.18403 17.1672 6.35001C16.978 5.78681 16.6789 5.26677 16.2872 4.82001C16.2555 4.78704 16.2175 4.76082 16.1754 4.7429C16.1333 4.72499 16.088 4.71575 16.0422 4.71575C15.9965 4.71575 15.9512 4.72499 15.9091 4.7429C15.867 4.76082 15.8289 4.78704 15.7972 4.82001C15.726 4.87862 15.6808 4.96297 15.6714 5.05473C15.6621 5.14648 15.6893 5.23822 15.7472 5.31001C16.1469 5.78887 16.4126 6.36509 16.5172 6.98001C16.5979 7.62751 16.5979 8.28251 16.5172 8.93001C16.5081 9.72543 16.238 10.4958 15.7484 11.1228C15.2587 11.7497 14.5767 12.1985 13.8072 12.4C13.0282 12.6099 12.212 12.6416 11.4191 12.4927C10.6262 12.3438 9.877 12.0182 9.22723 11.54C8.7817 11.1768 8.46017 10.6841 8.30723 10.13C8.11351 9.55102 8.04866 8.93669 8.11723 8.33001C8.20459 7.45338 8.49938 6.61013 8.97723 5.87001C9.44654 5.15017 10.1548 4.61899 10.9772 4.37001C11.6069 4.17937 12.2595 4.07509 12.9172 4.06001C13.5645 4.04666 14.2077 4.16576 14.8072 4.41001C14.8802 4.44316 14.9633 4.44598 15.0383 4.41785C15.1133 4.38972 15.1741 4.33295 15.2072 4.26001C15.2404 4.18708 15.2432 4.10396 15.2151 4.02895C15.1869 3.95393 15.1302 3.89316 15.0572 3.86001C14.3916 3.54043 13.6654 3.36656 12.9272 3.35001C12.2004 3.33431 11.4745 3.41161 10.7672 3.58001C9.74802 3.84433 8.85101 4.45175 8.22723 5.30001C7.61285 6.14639 7.2084 7.12665 7.04723 8.16001C6.93015 8.93697 6.99171 9.7304 7.22723 10.48C7.44862 11.2728 7.91825 11.9737 8.56723 12.48L8.78723 12.62C7.86566 13.0466 7.06235 13.692 6.44723 14.5C6.0339 15.0422 5.71601 15.651 5.50723 16.3C5.30662 16.9485 5.19559 17.6214 5.17723 18.3C5.12027 18.7912 5.09355 19.2855 5.09723 19.78C5.09839 20.0426 5.15639 20.3019 5.26723 20.54C5.30738 20.6112 5.37326 20.6644 5.45137 20.6886C5.52947 20.7127 5.61386 20.7061 5.68723 20.67C5.72342 20.6511 5.75552 20.6251 5.78166 20.5937C5.8078 20.5623 5.82748 20.5261 5.83956 20.487C5.85165 20.448 5.85589 20.407 5.85206 20.3663C5.84822 20.3256 5.83639 20.2861 5.81723 20.25C5.76169 20.0403 5.76169 19.8197 5.81723 19.61C5.88723 19.16 6.03723 18.68 6.09723 18.41C6.20329 17.8305 6.37091 17.264 6.59723 16.72C6.80064 16.1831 7.06219 15.67 7.37723 15.19C7.94893 14.3231 8.7206 13.6063 9.62723 13.1C11.0513 13.746 12.6624 13.8491 14.1572 13.39C14.584 13.2499 14.9907 13.0549 15.3672 12.81C16.0809 13.5112 16.6248 14.3663 16.9572 15.31C17.1972 15.86 17.4172 16.43 17.6072 17C17.9195 17.8621 18.1277 18.7585 18.2272 19.67C18.232 19.756 18.2683 19.8372 18.3292 19.898C18.3901 19.9589 18.4713 19.9952 18.5572 20Z" fill="#020202"/>
<path fill-rule="evenodd" clip-rule="evenodd" d="M0.467239 6.28001C0.460673 6.32644 0.460673 6.37357 0.467239 6.42001C0.491259 6.48041 0.534879 6.531 0.591096 6.56364C0.647314 6.59628 0.712869 6.60909 0.777239 6.60001C1.15724 6.54001 1.03724 6.19001 1.04724 5.78001C1.09288 4.74877 1.19302 3.72067 1.34724 2.70001C1.37996 2.31157 1.46057 1.92866 1.58724 1.56001C1.61344 1.49406 1.65393 1.43475 1.70581 1.38633C1.75768 1.33791 1.81965 1.3016 1.88724 1.28001C2.29957 1.19704 2.7173 1.14357 3.13724 1.12001C3.45108 1.06016 3.76837 1.02008 4.08724 1.00001H6.44724C6.5367 1.00015 6.62282 0.966035 6.68791 0.904662C6.75301 0.84329 6.79213 0.759322 6.79724 0.670006C6.79724 0.57718 6.76036 0.488156 6.69473 0.422518C6.62909 0.356881 6.54006 0.320006 6.44724 0.320006C5.65724 0.280006 4.88724 0.130006 4.09724 0.0800057C3.74149 0.0466211 3.38355 0.0432759 3.02724 0.0700057C2.5285 0.0546662 2.02946 0.0881591 1.53724 0.170006C1.31095 0.235966 1.10296 0.353316 0.929502 0.512901C0.75604 0.672486 0.621795 0.869991 0.537239 1.09001C0.352721 1.5732 0.248021 2.08319 0.227239 2.60001C0.211729 3.67291 0.271878 4.74557 0.407239 5.81001C0.417258 5.96779 0.437298 6.12477 0.467239 6.28001Z" fill="#0C6FFF"/>
<path fill-rule="evenodd" clip-rule="evenodd" d="M6.51724 23H4.14724C3.83838 22.9791 3.53112 22.939 3.22724 22.88C2.80399 22.8564 2.38295 22.803 1.96724 22.72C1.89976 22.6974 1.83845 22.6594 1.78813 22.6091C1.73781 22.5588 1.69985 22.4975 1.67724 22.43C1.54518 22.0658 1.46114 21.6859 1.42724 21.3C1.28577 20.2787 1.19898 19.2506 1.16724 18.22C1.19618 18.0077 1.19618 17.7924 1.16724 17.58C1.16724 17.49 0.657239 17.25 0.567239 17.72L0.507239 18.19C0.360745 19.2535 0.293892 20.3265 0.307239 21.4C0.318401 21.9152 0.41296 22.4251 0.587239 22.91C0.671124 23.1304 0.805149 23.3283 0.97871 23.488C1.15227 23.6477 1.36061 23.7648 1.58724 23.83C2.07913 23.9152 2.57817 23.952 3.07724 23.94C3.43681 23.965 3.79767 23.965 4.15724 23.94C4.94724 23.88 5.71724 23.74 6.50724 23.7C6.60006 23.7 6.68909 23.6631 6.75473 23.5975C6.82036 23.5319 6.85724 23.4428 6.85724 23.35C6.85724 23.2572 6.82036 23.1682 6.75473 23.1025C6.68909 23.0369 6.60006 23 6.50724 23H6.51724Z" fill="#0C6FFF"/>
<path fill-rule="evenodd" clip-rule="evenodd" d="M17.9372 1.00001C18.7272 1.05001 19.5172 1.00001 20.3072 1.00001C20.6221 1.01016 20.9361 1.04022 21.2472 1.09001C21.6705 1.1136 22.0915 1.16707 22.5072 1.25001C22.5733 1.27225 22.6336 1.30891 22.6838 1.35734C22.7339 1.40577 22.7727 1.46475 22.7972 1.53001C22.929 1.89773 23.0131 2.28087 23.0472 2.67001C23.211 3.9037 23.3045 5.14571 23.3272 6.39001C23.3272 6.48001 23.8372 6.71001 23.9272 6.25001L23.9872 5.78001C24.1203 4.71213 24.1738 3.63583 24.1472 2.56001C24.1362 2.0481 24.0416 1.54142 23.8672 1.06001C23.784 0.838138 23.6503 0.638642 23.4767 0.477253C23.3032 0.315863 23.0946 0.196991 22.8672 0.130011C22.3744 0.0534866 21.8759 0.0200269 21.3772 0.0300108C21.0175 0.0100159 20.657 0.0100159 20.2972 0.0300108C19.5072 0.0900108 18.7372 0.230011 17.9472 0.280011C17.8571 0.280011 17.7706 0.315832 17.7068 0.379594C17.6431 0.443357 17.6072 0.529837 17.6072 0.620011C17.6016 0.66707 17.606 0.714778 17.6199 0.760073C17.6338 0.805367 17.6571 0.847249 17.6881 0.88303C17.7192 0.918811 17.7574 0.947701 17.8003 0.967846C17.8432 0.987992 17.8899 0.998948 17.9372 1.00001Z" fill="#0C6FFF"/>
<path fill-rule="evenodd" clip-rule="evenodd" d="M24.0472 18.17C24.0472 17.75 23.9972 17.33 23.6472 17.39C23.2972 17.45 23.3872 17.74 23.3772 18.2C23.3424 19.2308 23.2523 20.2589 23.1072 21.28C23.0756 21.6686 22.9949 22.0516 22.8672 22.42C22.8423 22.4867 22.8023 22.5467 22.7502 22.5953C22.6981 22.6439 22.6355 22.6798 22.5672 22.7C22.1557 22.7879 21.7376 22.8414 21.3172 22.86C21.0028 22.9098 20.6855 22.9399 20.3672 22.95H18.0072C17.957 22.9414 17.9055 22.9439 17.8564 22.9573C17.8072 22.9707 17.7616 22.9947 17.7226 23.0275C17.6837 23.0604 17.6524 23.1013 17.6309 23.1475C17.6094 23.1937 17.5983 23.2441 17.5983 23.295C17.5983 23.346 17.6094 23.3963 17.6309 23.4425C17.6524 23.4887 17.6837 23.5297 17.7226 23.5625C17.7616 23.5954 17.8072 23.6194 17.8564 23.6327C17.9055 23.6461 17.957 23.6486 18.0072 23.64C18.7972 23.69 19.5672 23.83 20.3572 23.89C20.7136 23.9101 21.0709 23.9101 21.4272 23.89C21.9259 23.9004 22.4245 23.8669 22.9172 23.79C23.1439 23.7217 23.3518 23.6023 23.5252 23.4411C23.6985 23.2799 23.8326 23.0811 23.9172 22.86C24.0917 22.3786 24.1862 21.8719 24.1972 21.36C24.2212 20.2945 24.1711 19.2286 24.0472 18.17Z" fill="#0C6FFF"/>
</g>
<defs>
<clipPath id="clip0_3013_20968">
<rect width="24" height="24" fill="white" transform="translate(0.227234)"/>
</clipPath>
</defs>
</svg>
